<?xml version="1.0" encoding="UTF-8"?>
<svg width="15px" height="15px" viewBox="0 0 15 15" version="1.1" xmlns="http://www.w3.org/2000/svg" xmlns:xlink="http://www.w3.org/1999/xlink">
    <!-- Generator: Sketch 56.2 (81672) - https://sketch.com -->
    <title>Shape</title>
    <desc>Created with Sketch.</desc>
    <g id="Page-1" stroke="none" stroke-width="1" fill="none" fill-rule="evenodd">
        <g id="Desktop-HD-Copy-3" transform="translate(-886.000000, -716.000000)" fill="#00BAFF" fill-rule="nonzero">
            <g id="Group-7" transform="translate(295.000000, 156.000000)">
                <g id="Group-4">
                    <g id="approval_filled" transform="translate(591.000000, 560.000000)">
                        <path d="M14.955,7.33090909 L14.1872727,5.98738636 L14.2834091,4.41852273 C14.2905682,4.30022727 14.2356818,4.18636364 14.1385227,4.11852273 L12.8580682,3.22227273 L12.2822727,1.78261364 C12.2379545,1.67215909 12.1390909,1.59272727 12.0214773,1.57295455 L10.485,1.31693182 L9.33238636,0.260113636 C9.24375,0.179318182 9.11931818,0.150681818 9.00477273,0.184772727 L7.5,0.632727273 L5.99488636,0.184431818 C5.87965909,0.150340909 5.75556818,0.178636364 5.66727273,0.259772727 L4.51465909,1.31659091 L2.97784091,1.57261364 C2.86022727,1.59238636 2.76170455,1.67181818 2.71738636,1.78227273 L2.14159091,3.22193182 L0.861477273,4.11818182 C0.764318182,4.18636364 0.709431818,4.29988636 0.716590909,4.41818182 L0.812386364,5.98704545 L0.045,7.33056818 C-0.015,7.43556818 -0.015,7.56409091 0.045,7.66875 L0.812386364,9.01227273 L0.716590909,10.5807955 C0.709431818,10.6994318 0.764318182,10.8129545 0.861136364,10.8811364 L2.14159091,11.7777273 L2.71738636,13.2173864 C2.76170455,13.3278409 2.86056818,13.4076136 2.97784091,13.4270455 L4.51465909,13.6830682 L5.66727273,14.7398864 C5.75590909,14.8203409 5.88034091,14.8496591 5.99488636,14.8152273 L7.5,14.3669318 L9.00511364,14.8152273 C9.03715909,14.8247727 9.06954545,14.8295455 9.10227273,14.8295455 C9.18647727,14.8295455 9.26897727,14.7981818 9.33272727,14.7398864 L10.4853409,13.6830682 L12.0218182,13.4270455 C12.1394318,13.4072727 12.2382955,13.3281818 12.2826136,13.2173864 L12.8584091,11.7777273 L14.1388636,10.8811364 C14.2360227,10.8129545 14.2909091,10.6994318 14.28375,10.5807955 L14.1876136,9.01227273 L14.9553409,7.66875 C15.015,7.56443182 15.015,7.43556818 14.955,7.33090909 Z M6.98965909,10.7488636 L3.89659091,7.9575 L5,7 L7,8.5 L10,3.5 L11.1620455,4.27534091 L6.98965909,10.7488636 Z" id="Shape"></path>
                    </g>
                </g>
            </g>
        </g>
    </g>
</svg>