<?xml version="1.0" encoding="UTF-8"?>
<svg width="53px" height="53px" viewBox="0 0 53 53" version="1.1" xmlns="http://www.w3.org/2000/svg" xmlns:xlink="http://www.w3.org/1999/xlink">
    <!-- Generator: Sketch 56.2 (81672) - https://sketch.com -->
    <title>Group 9</title>
    <desc>Created with Sketch.</desc>
    <g id="Page-1" stroke="none" stroke-width="1" fill="none" fill-rule="evenodd">
        <g id="Desktop-HD-Copy" transform="translate(-420.000000, -934.000000)">
            <g id="Group-9" transform="translate(420.000000, 934.000000)">
                <g id="Group-6" fill="#2EF07B">
                    <rect id="Rectangle-5" x="0" y="0" width="52.734375" height="52.734375" rx="11.71875"></rect>
                </g>
                <path d="M9.7859375,19.353125 L14.7898437,19.353125 C15.3585966,19.353125 15.9246066,19.4105463 16.4878906,19.5253906 C17.0511747,19.6402349 17.5542947,19.8425767 17.9972656,20.1324219 C18.4402366,20.4222671 18.7984361,20.8105444 19.071875,21.2972656 C19.3453139,21.7839868 19.4820312,22.3937463 19.4820312,23.1265625 C19.4820312,23.8375036 19.307033,24.4636692 18.9570312,25.0050781 C18.6070295,25.5464871 18.1039095,25.9648423 17.4476562,26.2601563 L20.4007812,30.96875 L15.9054687,30.96875 L13.6742187,26.8179688 L13.559375,26.8179688 L13.559375,30.96875 L9.7859375,30.96875 L9.7859375,19.353125 Z M13.5265625,24.2585938 L14.2976562,24.2585938 C14.4289069,24.2585938 14.5738273,24.2476564 14.7324219,24.2257813 C14.8910164,24.2039061 15.0386712,24.1574222 15.1753906,24.0863281 C15.3121101,24.015234 15.4269527,23.9167975 15.5199219,23.7910156 C15.6128911,23.6652337 15.659375,23.4984385 15.659375,23.290625 C15.659375,23.0828115 15.6210941,22.9187506 15.5445312,22.7984375 C15.4679684,22.6781244 15.3695319,22.5878909 15.2492187,22.5277344 C15.1289056,22.4675778 14.997657,22.429297 14.8554687,22.4128906 C14.7132805,22.3964843 14.5820319,22.3882813 14.4617187,22.3882813 L13.5265625,22.3882813 L13.5265625,24.2585938 Z M24.3328125,19.353125 L28.4835938,19.353125 L33.0117188,30.96875 L28.7625,30.96875 L28.1554688,29.2625 L24.4640625,29.2625 L23.8898438,30.96875 L19.7554688,30.96875 L24.3328125,19.353125 Z M26.3507813,23.4054688 L25.3992188,26.2765625 L27.2859375,26.2765625 L26.3507813,23.4054688 Z M38.7976563,27.5726563 L36.7796875,30.96875 L32.153125,30.96875 L36.3039063,24.9148438 L32.3664063,19.353125 L37.075,19.353125 L38.9125,22.4046875 L40.6679688,19.353125 L45.2617188,19.353125 L41.3898438,24.865625 L45.671875,30.96875 L40.8976563,30.96875 L38.7976563,27.5726563 Z" id="RAX" fill="#000000" fill-rule="nonzero"></path>
            </g>
        </g>
    </g>
</svg>