<?xml version="1.0" encoding="UTF-8"?>
<svg width="45px" height="16px" viewBox="0 0 45 16" version="1.1" xmlns="http://www.w3.org/2000/svg" xmlns:xlink="http://www.w3.org/1999/xlink">
    <!-- Generator: Sketch 53.2 (72643) - https://sketchapp.com -->
    <title>Group 13</title>
    <desc>Created with Sketch.</desc>
    <g id="Page-1" stroke="none" stroke-width="1" fill="none" fill-rule="evenodd">
        <g id="iPhone-SE" transform="translate(-17.000000, -11.000000)" fill-rule="nonzero">
            <g id="Group-9" transform="translate(-1.000000, -2.000000)">
                <g id="Group-11" transform="translate(18.000000, 13.500000)">
                    <g id="Group-13" transform="translate(0.479500, 0.000000)">
                        <path d="M6.2505,8.233 C6.2505,8.61100189 6.20775043,9.00699793 6.12225,9.421 C6.03674957,9.83500207 5.87925115,10.2152483 5.64975,10.56175 C5.42024885,10.9082517 5.10075205,11.1939989 4.69125,11.419 C4.28174795,11.6440011 3.75300324,11.7565 3.105,11.7565 C2.29499595,11.7565 1.6200027,11.5472521 1.08,11.12875 C0.5399973,10.7102479 0.1800009,10.1725033 3.55271368e-15,9.5155 L2.0385,8.827 C2.10150032,9.07900126 2.21624917,9.28149924 2.38275,9.4345 C2.54925083,9.58750077 2.75399879,9.664 2.997,9.664 C3.37500189,9.664 3.62474939,9.53350131 3.74625,9.2725 C3.86775061,9.0114987 3.9285,8.66950212 3.9285,8.2465 L3.9285,1.942 L6.2505,1.942 L6.2505,8.233 Z M10.9965,8.5705 L10.713,8.5705 C10.4699988,8.5705 10.2247512,8.58174989 9.97725,8.60425 C9.72974876,8.62675011 9.50925097,8.66949969 9.31575,8.7325 C9.12224903,8.79550032 8.96250063,8.88774939 8.8365,9.00925 C8.71049937,9.13075061 8.6475,9.29049901 8.6475,9.4885 C8.6475,9.61450063 8.67674971,9.72249955 8.73525,9.8125 C8.79375029,9.90250045 8.86799955,9.97449973 8.958,10.0285 C9.04800045,10.0825003 9.15149942,10.1207499 9.2685,10.14325 C9.38550059,10.1657501 9.49799946,10.177 9.606,10.177 C10.0560023,10.177 10.4002488,10.0532512 10.63875,9.80575 C10.8772512,9.55824876 10.9965,9.22300212 10.9965,8.8 L10.9965,8.5705 Z M6.933,5.695 C7.32900198,5.31699811 7.79024737,5.03350095 8.31675,4.8445 C8.84325263,4.65549906 9.38099726,4.561 9.93,4.561 C10.4970028,4.561 10.976248,4.6307493 11.36775,4.77025 C11.759252,4.9097507 12.0764988,5.12574854 12.3195,5.41825 C12.5625012,5.71075146 12.7402494,6.07974777 12.85275,6.52525 C12.9652506,6.97075223 13.0215,7.49949694 13.0215,8.1115 L13.0215,11.5 L10.9965,11.5 L10.9965,10.7845 L10.956,10.7845 C10.7849991,11.0635014 10.5262517,11.2794992 10.17975,11.4325 C9.83324827,11.5855008 9.45750203,11.662 9.0525,11.662 C8.78249865,11.662 8.50350144,11.6260004 8.2155,11.554 C7.92749856,11.4819996 7.66425119,11.3650008 7.42575,11.203 C7.18724881,11.0409992 6.99150077,10.8250014 6.8385,10.555 C6.68549924,10.2849987 6.609,9.95200198 6.609,9.556 C6.609,9.06999757 6.74174867,8.67850149 7.00725,8.3815 C7.27275133,8.08449852 7.61474791,7.85500081 8.03325,7.693 C8.45175209,7.53099919 8.91749744,7.42300027 9.4305,7.369 C9.94350257,7.31499973 10.4429976,7.288 10.929,7.288 L10.929,7.18 C10.929,6.84699834 10.8120012,6.60175079 10.578,6.44425 C10.3439988,6.28674921 10.0560017,6.208 9.714,6.208 C9.39899843,6.208 9.09525146,6.27549933 8.80275,6.4105 C8.51024854,6.54550068 8.26050104,6.70749906 8.0535,6.8965 L6.933,5.695 Z M17.6865,6.7615 C17.5064991,6.59049915 17.2950012,6.44650059 17.052,6.3295 C16.8089988,6.21249942 16.5525014,6.154 16.2825,6.154 C16.075499,6.154 15.8842509,6.1944996 15.70875,6.2755 C15.5332491,6.35650041 15.4455,6.49599901 15.4455,6.694 C15.4455,6.88300095 15.542249,7.0179996 15.73575,7.099 C15.929251,7.18000041 16.2419978,7.26999951 16.674,7.369 C16.9260013,7.42300027 17.1802487,7.49949951 17.43675,7.5985 C17.6932513,7.6975005 17.924999,7.82799919 18.132,7.99 C18.339001,8.15200081 18.5054994,8.34999883 18.6315,8.584 C18.7575006,8.81800117 18.8205,9.09699838 18.8205,9.421 C18.8205,9.84400212 18.7350009,10.2017485 18.564,10.49425 C18.3929991,10.7867515 18.1702514,11.0229991 17.89575,11.203 C17.6212486,11.3830009 17.3130017,11.5134996 16.971,11.5945 C16.6289983,11.6755004 16.2870017,11.716 15.945,11.716 C15.3959973,11.716 14.8582526,11.6282509 14.33175,11.45275 C13.8052474,11.2772491 13.3665018,11.0185017 13.0155,10.6765 L14.2575,9.367 C14.455501,9.58300108 14.6984986,9.76299928 14.9865,9.907 C15.2745014,10.0510007 15.5804984,10.123 15.9045,10.123 C16.0845009,10.123 16.2622491,10.0802504 16.43775,9.99475 C16.6132509,9.90924957 16.701,9.75850108 16.701,9.5425 C16.701,9.33549897 16.5930011,9.1825005 16.377,9.0835 C16.1609989,8.98449951 15.8235023,8.88100054 15.3645,8.773 C15.1304988,8.71899973 14.8965012,8.64700045 14.6625,8.557 C14.4284988,8.46699955 14.2192509,8.34550077 14.03475,8.1925 C13.8502491,8.03949924 13.6995006,7.85050113 13.5825,7.6255 C13.4654994,7.40049888 13.407,7.13050158 13.407,6.8155 C13.407,6.41049798 13.4924991,6.06625142 13.6635,5.78275 C13.8345009,5.49924858 14.0549987,5.2675009 14.325,5.0875 C14.5950014,4.9074991 14.8942484,4.77475043 15.22275,4.68925 C15.5512516,4.60374957 15.8774984,4.561 16.2015,4.561 C16.7055025,4.561 17.1982476,4.63974921 17.67975,4.79725 C18.1612524,4.95475079 18.5684983,5.19099843 18.9015,5.506 L17.6865,6.7615 Z M26.6445,8.1115 C26.6445,8.57950234 26.5725007,9.02949784 26.4285,9.4615 C26.2844993,9.89350216 26.0752514,10.2737484 25.80075,10.60225 C25.5262486,10.9307516 25.191002,11.193999 24.795,11.392 C24.398998,11.590001 23.9490025,11.689 23.445,11.689 C23.0309979,11.689 22.6395018,11.6057508 22.2705,11.43925 C21.9014982,11.2727492 21.613501,11.0455014 21.4065,10.7575 L21.3795,10.7575 L21.3795,14.74 L19.1655,14.74 L19.1655,4.777 L21.2715,4.777 L21.2715,5.6005 L21.312,5.6005 C21.519001,5.33049865 21.8047482,5.09425101 22.16925,4.89175 C22.5337518,4.68924899 22.9634975,4.588 23.4585,4.588 C23.9445024,4.588 24.385498,4.68249906 24.7815,4.8715 C25.177502,5.06050095 25.5127486,5.31699838 25.78725,5.641 C26.0617514,5.96500162 26.2732493,6.34074786 26.42175,6.76825 C26.5702507,7.19575214 26.6445,7.64349766 26.6445,8.1115 Z M24.498,8.1115 C24.498,7.89549892 24.4642503,7.68400104 24.39675,7.477 C24.3292497,7.26999897 24.2302507,7.08775079 24.09975,6.93025 C23.9692493,6.77274921 23.805001,6.6445005 23.607,6.5455 C23.408999,6.44649951 23.1795013,6.397 22.9185,6.397 C22.6664987,6.397 22.441501,6.44649951 22.2435,6.5455 C22.045499,6.6445005 21.8767507,6.77499919 21.73725,6.937 C21.5977493,7.09900081 21.4897504,7.28349897 21.41325,7.4905 C21.3367496,7.69750104 21.2985,7.90899892 21.2985,8.125 C21.2985,8.34100108 21.3367496,8.55249897 21.41325,8.7595 C21.4897504,8.96650104 21.5977493,9.15099919 21.73725,9.313 C21.8767507,9.47500081 22.045499,9.60549951 22.2435,9.7045 C22.441501,9.8035005 22.6664987,9.853 22.9185,9.853 C23.1795013,9.853 23.408999,9.8035005 23.607,9.7045 C23.805001,9.60549951 23.9692493,9.47500081 24.09975,9.313 C24.2302507,9.15099919 24.3292497,8.96425106 24.39675,8.75275 C24.4642503,8.54124894 24.498,8.32750108 24.498,8.1115 Z M31.728,7.369 C31.728,7.01799825 31.6177511,6.71650126 31.39725,6.4645 C31.1767489,6.21249874 30.8460022,6.0865 30.405,6.0865 C30.1889989,6.0865 29.9910009,6.12024966 29.811,6.18775 C29.6309991,6.25525034 29.4735007,6.34749942 29.3385,6.4645 C29.2034993,6.58150059 29.0955004,6.71874921 29.0145,6.87625 C28.9334996,7.03375079 28.8885,7.19799915 28.8795,7.369 L31.728,7.369 Z M33.7665,8.2195 L33.7665,8.4895 C33.7665,8.57950045 33.762,8.6649996 33.753,8.746 L28.8795,8.746 C28.8975001,8.93500095 28.9537495,9.10599924 29.04825,9.259 C29.1427505,9.41200077 29.2642493,9.54474944 29.41275,9.65725 C29.5612507,9.76975056 29.7277491,9.85749969 29.91225,9.9205 C30.0967509,9.98350032 30.287999,10.015 30.486,10.015 C30.8370018,10.015 31.1339988,9.94975065 31.377,9.81925 C31.6200012,9.68874935 31.8179992,9.52000104 31.971,9.313 L33.51,10.285 C33.1949984,10.7440023 32.7787526,11.0972488 32.26125,11.34475 C31.7437474,11.5922512 31.1430034,11.716 30.459,11.716 C29.9549975,11.716 29.4780022,11.6372508 29.028,11.47975 C28.5779977,11.3222492 28.1842517,11.0927515 27.84675,10.79125 C27.5092483,10.4897485 27.243751,10.1185022 27.05025,9.6775 C26.856749,9.2364978 26.76,8.73250284 26.76,8.1655 C26.76,7.61649726 26.8544991,7.11925223 27.0435,6.67375 C27.2325009,6.22824777 27.4889984,5.85025155 27.813,5.53975 C28.1370016,5.22924845 28.5194978,4.98850086 28.9605,4.8175 C29.4015022,4.64649915 29.8784974,4.561 30.3915,4.561 C30.8865025,4.561 31.3409979,4.64424917 31.755,4.81075 C32.1690021,4.97725083 32.5244985,5.21799843 32.8215,5.533 C33.1185015,5.84800158 33.3502492,6.23049775 33.51675,6.6805 C33.6832508,7.13050225 33.7665,7.64349712 33.7665,8.2195 Z M38.5665,6.586 C38.4674995,6.55899987 38.3707505,6.54100005 38.27625,6.532 C38.1817495,6.52299996 38.0895004,6.5185 37.9995,6.5185 C37.7024985,6.5185 37.452751,6.57249946 37.25025,6.6805 C37.047749,6.78850054 36.8857506,6.91899924 36.76425,7.072 C36.6427494,7.22500077 36.5550003,7.3914991 36.501,7.5715 C36.4469997,7.7515009 36.42,7.90899933 36.42,8.044 L36.42,11.5 L34.206,11.5 L34.206,4.777 L36.339,4.777 L36.339,5.749 L36.366,5.749 C36.5370009,5.40699829 36.7799984,5.12800108 37.095,4.912 C37.4100016,4.69599892 37.7744979,4.588 38.1885,4.588 C38.2785004,4.588 38.3662496,4.59249996 38.45175,4.6015 C38.5372504,4.61050005 38.6069997,4.62399991 38.661,4.642 L38.5665,6.586 Z" id="Jasper" fill="#000000"></path>
                        <path d="M43.7177153,1.93737965 C42.7825103,1.72414073 42.0463357,0.987993487 41.833197,0.0528232536 C41.8171427,-0.0176077512 41.7238979,-0.0176077512 41.7078435,0.0528232536 C41.4946507,0.987993487 40.7584221,1.72414073 39.8233252,1.93737965 C39.7528916,1.95343338 39.7528916,2.04667473 39.8233252,2.06272846 C40.7585302,2.27591333 41.4947048,3.01200651 41.7078435,3.94717675 C41.7238979,4.01760775 41.8171427,4.01760775 41.833197,3.94717675 C42.0463898,3.01200651 42.7826184,2.27585927 43.7177153,2.06272846 C43.7880949,2.04672878 43.7880949,1.95343338 43.7177153,1.93737965 Z" id="Shape-Copy-2" fill="#9013FE"></path>
                    </g>
                </g>
            </g>
        </g>
    </g>
</svg>