<?xml version="1.0" encoding="UTF-8"?>
<svg width="54px" height="54px" viewBox="0 0 54 54" version="1.1" xmlns="http://www.w3.org/2000/svg" xmlns:xlink="http://www.w3.org/1999/xlink">
    <!-- Generator: Sketch 53.2 (72643) - https://sketchapp.com -->
    <title>Group 6</title>
    <desc>Created with Sketch.</desc>
    <defs>
        <path d="M11.6842035,0.0355004253 C11.573275,0.0407467936 11.4712502,0.0741180983 11.3737876,0.12722015 C11.276325,0.180322202 11.1851906,0.254791281 11.1208411,0.345054497 L0.140644394,15.7539756 C0.052931741,15.8771369 0.00267356801,16.0270803 0.00267356801,16.178161 C0.00267356801,16.3292784 0.052931741,16.4792218 0.140644394,16.6023831 L11.1208411,32.0113336 C11.1885387,32.1062818 11.2814759,32.1871786 11.3853035,32.2406329 C11.4891312,32.2940505 11.6018625,32.3208693 11.7187146,32.3208693 C11.8355667,32.3208693 11.9598141,32.2940871 12.0636417,32.2406329 C12.1674693,32.1871786 12.2603697,32.1062818 12.3280674,32.0113336 L23.308264,16.6023831 C23.3960503,16.4792218 23.4462349,16.3292784 23.4462349,16.178161 C23.4462349,16.0270803 23.3960503,15.8771369 23.308264,15.7539756 L12.3280674,0.345054497 C12.2570584,0.245362494 12.1509496,0.157799507 12.0406466,0.104290219 C11.9303435,0.0507846003 11.8067584,0.0297184138 11.6842035,0.0355004253 Z" id="path-1"></path>
        <filter x="-12.8%" y="-9.3%" width="125.6%" height="118.6%" filterUnits="objectBoundingBox" id="filter-2">
            <feMorphology radius="0.5" operator="dilate" in="SourceAlpha" result="shadowSpreadOuter1"></feMorphology>
            <feOffset dx="0" dy="0" in="shadowSpreadOuter1" result="shadowOffsetOuter1"></feOffset>
            <feGaussianBlur stdDeviation="0.5" in="shadowOffsetOuter1" result="shadowBlurOuter1"></feGaussianBlur>
            <feColorMatrix values="0 0 0 0 0.877471301   0 0 0 0 0.877471301   0 0 0 0 0.877471301  0 0 0 0.5 0" type="matrix" in="shadowBlurOuter1"></feColorMatrix>
        </filter>
    </defs>
    <g id="Page-1" stroke="none" stroke-width="1" fill="none" fill-rule="evenodd">
        <g id="iPhone-X" transform="translate(-31.000000, -669.000000)">
            <g id="Group-11" transform="translate(14.000000, 652.000000)">
                <g id="Group-6" transform="translate(17.542056, 17.710280)">
                    <rect id="Rectangle-5" fill="#FFFFFF" x="0" y="0" width="52.5700935" height="52.5700935" rx="11.682243"></rect>
                    <g id="Group-3" transform="translate(13.434579, 9.929907)">
                        <g id="noun_jewel_1215006">
                            <g id="Group" transform="translate(0.000000, 0.038334)">
                                <g id="Group-2">
                                    <g id="Shape">
                                        <use fill="black" fill-opacity="1" filter="url(#filter-2)" xlink:href="#path-1"></use>
                                        <use fill="#9013FE" fill-rule="evenodd" xlink:href="#path-1"></use>
                                    </g>
                                    <path d="M25.0572658,4.65987208 C24.0020789,4.41735021 23.1714569,3.58011185 22.9309736,2.51651975 C22.9128596,2.43641684 22.807652,2.43641684 22.789538,2.51651975 C22.5489936,3.58011185 21.7183107,4.41735021 20.6632458,4.65987208 C20.5837759,4.67813038 20.5837759,4.78417606 20.6632458,4.80243436 C21.7184327,5.04489476 22.5490546,5.88207164 22.789538,6.94566374 C22.807652,7.02576665 22.9128596,7.02576665 22.9309736,6.94566374 C23.1715179,5.88207164 24.0022009,5.04483328 25.0572658,4.80243436 C25.1366747,4.78423754 25.1366747,4.67813038 25.0572658,4.65987208 Z" id="Shape" fill="#9013FE" fill-rule="nonzero"></path>
                                </g>
                            </g>
                        </g>
                        <ellipse id="Oval" fill="#FFFFFF" cx="8.24145736" cy="12.5961756" rx="1.86413916" ry="2.27464918"></ellipse>
                        <path d="M17.0120336,12.5249559 C15.9568467,12.282434 15.1262248,11.4451957 14.8857414,10.3816036 C14.8676274,10.3015007 14.7624198,10.3015007 14.7443058,10.3816036 C14.5037615,11.4451957 13.6730785,12.282434 12.6180136,12.5249559 C12.5385437,12.5432142 12.5385437,12.6492599 12.6180136,12.6675182 C13.6732005,12.9099786 14.5038225,13.7471555 14.7443058,14.8107476 C14.7624198,14.8908505 14.8676274,14.8908505 14.8857414,14.8107476 C15.1262857,13.7471555 15.9569687,12.9099171 17.0120336,12.6675182 C17.0914425,12.6493214 17.0914425,12.5432142 17.0120336,12.5249559 Z" id="Shape-Copy" fill="#FFFFFF" fill-rule="nonzero"></path>
                        <path d="M5.19996714,18.0993591 C7.84304976,18.6136979 10.0285311,18.8708673 11.7564111,18.8708673 C13.4842911,18.8708673 15.6697724,18.6136979 18.3128551,18.0993591 L18.3128551,18.0993591 C16.5106042,21.7203831 12.1141713,23.19479 8.49314726,21.3925392 C7.06633164,20.6823866 5.91011976,19.5261747 5.19996714,18.0993591 L5.19996714,18.0993591 Z" id="Path-7" fill="#FFFFFF"></path>
                    </g>
                </g>
            </g>
        </g>
    </g>
</svg>